<svg xmlns="http://www.w3.org/2000/svg" viewBox="0 0 52.6 52.6"><defs><style>.cls-1{fill:#fff;}</style></defs><title>Asset 2donate_white</title><g id="Layer_2" data-name="Layer 2"><g id="Layer_1-2" data-name="Layer 1"><path class="cls-1" d="M30.41,29.38A14.69,14.69,0,1,0,15.72,14.69,14.71,14.71,0,0,0,30.41,29.38Zm0-26.3A11.61,11.61,0,1,1,18.8,14.69,11.63,11.63,0,0,1,30.41,3.08Z"/><path class="cls-1" d="M32.76,13.08a11.49,11.49,0,0,1-2.84-1.31.67.67,0,0,1-.06-.51.91.91,0,0,1,.59-.72,2,2,0,0,1,1.75.24,1.65,1.65,0,0,0,2.23-2.43,5.31,5.31,0,0,0-1.85-1V7.22a1.65,1.65,0,1,0-3.3,0v.24c-3,1.07-3.66,5.13-1.39,6.91a13.54,13.54,0,0,0,3.77,1.81,1.1,1.1,0,0,1,.82,1.32,1.56,1.56,0,0,1-1.56,1.33,2.92,2.92,0,0,1-2.17-.56A1.65,1.65,0,0,0,27,21a5.93,5.93,0,0,0,2.33,1v.16a1.65,1.65,0,0,0,3.3,0v-.34c4-1.45,4.52-7.23.18-8.76Z"/><path class="cls-1" d="M44.59,30,26.93,34a5.22,5.22,0,0,0-1.39-.91L16.47,29a10,10,0,0,0-8.28,0L.9,32.4a1.54,1.54,0,1,0,1.28,2.8l7.3-3.32a6.9,6.9,0,0,1,5.73,0l9.07,4.07a2.21,2.21,0,0,1-1.81,4l-7.84-3.53a1.54,1.54,0,0,0-1.27,2.81l7.84,3.53a5.29,5.29,0,0,0,7.34-5.95L45.41,33A3.19,3.19,0,0,1,48,38.78l-16.6,9.78a6.9,6.9,0,0,1-5.78.57L12.84,44.67a1.54,1.54,0,0,0-1.06,0L1,48.8a1.54,1.54,0,0,0,1.1,2.88l10.26-3.91L24.56,52a9.94,9.94,0,0,0,8.36-.83l16.6-9.78A6.27,6.27,0,0,0,44.59,30Z"/></g></g></svg>