<svg id="Capa_1" enable-background="new 0 0 512 512" height="512" viewBox="0 0 512 512" width="512" xmlns="http://www.w3.org/2000/svg"><g><g><path d="m441.87 504.499-185.869-404.064-185.87 404.064z" fill="#66b394"/></g><g><path d="m441.87 504.499-111.008-241.32-25.533 33.839c-1.162 1.54-2.741 2.715-4.55 3.387l-58.368 21.652c-2.37.879-4.324 2.614-5.476 4.864l-15.682 30.599c-.841 1.641-2.748 2.431-4.504 1.865-.603-.195-1.147-.538-1.582-.999l-52.308-55.465-92.728 201.578z" fill="#5aa687"/></g><g><path d="m173.167 504.499 82.834-161.625 62.629-23.234 83.844-111.118 102.026 124.25v171.727z" fill="#78c2a4"/></g><g><path d="m504.5 369.212v-36.44l-102.026-124.25-16.165 21.423z" fill="#66b394"/></g><g><path d="m7.501 504.499v-104.046l77.783-144.453 117.178 124.25 62.63 20.203 76.772 104.046z" fill="#b3e59f"/></g><g><path d="m265.092 400.453-62.63-20.203-117.178-124.25-13.189 24.494 113.514 121.042c2.437 2.599 5.519 4.507 8.931 5.531l48.768 14.63c4.298 1.289 8.045 3.973 10.649 7.628l53.562 75.174h34.345z" fill="#95d6a4"/></g><g><path d="m299.014 193.943-43.013-93.508-43.014 93.508 18.77 7.508 24.244-14.142 24.243 14.142z" fill="#d3effb"/></g><g><path d="m402.474 208.522-44.416 58.864 25.223 30.031 17.172-16.163 30.305 31.315 35.124-26.826z" fill="#f4fbff"/></g><g><path d="m446.333 300.673 19.549-14.93-63.408-77.221-16.165 21.423z" fill="#d3effb"/></g><g><path d="m144.608 318.905-59.324-62.905-29.532 54.844 26.501 17.888 17.173-16.163 28.284 27.274z" fill="#f4fbff"/></g><g><path d="m127.73 339.819 16.878-20.914-59.324-62.905-13.189 24.494z" fill="#d3effb"/></g><g><path d="m336.813 70.131h-80.812v-62.63h80.812l-15.152 31.315z" fill="#df75a5"/></g><g><path d="m510.296 328.012-102.026-124.249c-2.898-3.716-9.042-3.588-11.783.242l-52.546 69.64-13.646-29.669c-1.729-3.762-6.183-5.41-9.947-3.68s-5.411 6.185-3.68 9.947l17.016 36.995-19.718 26.133-60.573 22.47c-1.76.653-3.21 1.941-4.066 3.611l-21.125 41.219-21.606-6.969-45.736-48.496 55.96-121.653 12.152 4.861c2.146.857 4.567.68 6.564-.485l20.465-11.938 20.465 11.938c1.162.678 2.468 1.021 3.779 1.021.942 0 1.889-.178 2.785-.536l12.152-4.861 6.854 14.901c1.73 3.762 6.186 5.408 9.947 3.679 3.764-1.73 5.411-6.185 3.68-9.948l-52.162-113.397v-21.158h73.313c2.582 0 4.982-1.328 6.354-3.516 1.371-2.188 1.521-4.927.396-7.251l-13.572-28.048 13.572-28.049c1.125-2.324.975-5.063-.396-7.251-1.372-2.187-3.772-3.516-6.354-3.516h-80.813c-4.143 0-7.5 3.357-7.5 7.5v91.287l-98.739 214.652-59.024-62.585c-1.653-1.753-4.054-2.601-6.437-2.29-2.389.314-4.48 1.759-5.623 3.88l-43.57 80.92c-1.964 3.647-.6 8.195 3.048 10.159 3.647 1.965 8.196.599 10.159-3.048l10.111-18.778 19.631 13.251c2.908 1.961 6.783 1.648 9.337-.755l11.97-11.266 23.141 22.314c1.402 1.353 3.27 2.102 5.206 2.102.155 0 .311-.005.467-.015 2.1-.131 4.048-1.138 5.369-2.775l11.501-14.251 1.339 1.419c.005.006.011.011.016.017l50.603 53.656c.866.919 1.951 1.604 3.154 1.992l60.331 19.459 17.417 23.598c1.471 1.992 3.74 3.047 6.04 3.047 1.547-.001 3.107-.478 4.448-1.467 3.332-2.46 4.04-7.155 1.58-10.488l-18.851-25.54c-.933-1.263-2.237-2.202-3.732-2.684l-24.726-7.975 18.678-36.447 59.894-22.218c1.344-.499 2.516-1.371 3.379-2.515l33.755-44.736 19.165 22.818c1.327 1.58 3.245 2.543 5.305 2.664 2.061.125 4.076-.612 5.579-2.025l11.786-11.094 25.161 26c1.462 1.511 3.422 2.284 5.392 2.284 1.596 0 3.198-.507 4.551-1.54l29.37-22.432 34.024 41.435c2.628 3.201 7.354 3.666 10.556 1.036 3.199-2.625 3.663-7.351 1.034-10.553zm-229.436-134.885-21.08-12.297c-2.336-1.361-5.223-1.361-7.559 0l-21.08 12.297-8.046-3.218 32.905-71.533 32.905 71.533zm34.05-151.044 9.943 20.548h-61.352v-47.63h61.352l-9.943 20.549c-.999 2.063-.999 4.469 0 6.533zm-187.892 286.675-22.387-21.587c-2.881-2.778-7.433-2.805-10.347-.063l-12.804 12.052-15.907-10.737 21.384-39.715 47.703 50.582zm304.49-26.199-25.665-26.521c-2.854-2.947-7.545-3.057-10.53-.245l-11.394 10.724-16.277-19.38 35.08-46.492 52.432 63.853z"/><path d="m310.745 449.697c-2.459-3.334-7.156-4.04-10.488-1.582-3.333 2.459-4.041 7.155-1.582 10.488l37.15 50.349c1.471 1.993 3.741 3.047 6.041 3.047 1.547 0 3.107-.477 4.447-1.465 3.333-2.459 4.041-7.155 1.582-10.488z"/><path d="m28.678 361.137c-3.645-1.964-8.195-.601-10.159 3.046l-17.62 32.71c-1.965 3.646-.601 8.195 3.046 10.159 1.131.609 2.35.898 3.55.898 2.67 0 5.255-1.429 6.609-3.944l17.62-32.71c1.965-3.646.6-8.195-3.046-10.159z"/></g></g></svg>