<svg xmlns="http://www.w3.org/2000/svg" viewBox="0 0 151.19 121.34"><defs><style>.cls-1{fill:white;}</style></defs><title>Asset 4partner_white</title><g id="Layer_2" data-name="Layer 2"><g id="Layer_1-2" data-name="Layer 1"><path class="cls-1" d="M120.59,23a3,3,0,1,0-4.17,0A2.95,2.95,0,0,0,120.59,23Z"/><path class="cls-1" d="M38.53,29.13a3,3,0,1,0-4.17,0A2.95,2.95,0,0,0,38.53,29.13Z"/><path class="cls-1" d="M21.16,46.13,30,37.29a3,3,0,0,0-4.17-4.18L17,42a3,3,0,1,0,4.18,4.18Z"/><path class="cls-1" d="M130.34,37.57a3,3,0,1,0,4.17-4.18l-5.89-5.89a3,3,0,0,0-4.18,4.17Z"/><path class="cls-1" d="M150.33,34.28,116.92.87A3,3,0,0,0,112.81.8l-15,14.1,0,0c-2.88,2.89-5.73,4.18-9.22,4.18-7.13,0-12.59,2-17.13,6.31-3.72-3.52-7.93-5.34-13.82-6L42.88,4.7a3,3,0,0,0-4.18,0L.87,42.54A2.94,2.94,0,0,0,.8,46.65a.46.46,0,0,0,.07.07S25.49,71.3,25.52,71.34l-1,1A10.32,10.32,0,0,0,31.9,90a10.31,10.31,0,0,0,10.44,10.45,10.3,10.3,0,0,0,10.44,10.43,10.33,10.33,0,0,0,17.64,7.43l1-1,1.05,1a10.34,10.34,0,0,0,17.64-7.42,10.31,10.31,0,0,0,10.43-10.44A10.33,10.33,0,0,0,111,90a10.32,10.32,0,0,0,7.42-17.63l-1-1C138,50.77,112,76.84,150.33,38.45A3,3,0,0,0,150.33,34.28ZM7.13,44.63,40.79,11,52.14,22.31,18.48,56ZM28.66,82.82a4.42,4.42,0,0,1,0-6.26L39.1,66.11a4.43,4.43,0,0,1,6.26,6.27L34.92,82.82A4.44,4.44,0,0,1,28.66,82.82ZM39.1,93.26a4.42,4.42,0,0,1,0-6.26L49.54,76.56a4.43,4.43,0,1,1,6.26,6.26h0L45.36,93.26A4.42,4.42,0,0,1,39.1,93.26ZM49.54,103.7a4.42,4.42,0,0,1,0-6.26L60,87a4.43,4.43,0,1,1,6.26,6.26h0L55.8,103.7A4.42,4.42,0,0,1,49.54,103.7ZM60,114.14a4.42,4.42,0,0,1,0-6.26L70.42,97.44a4.43,4.43,0,1,1,6.26,6.26L66.24,114.14A4.42,4.42,0,0,1,60,114.14Zm23,0a4.44,4.44,0,0,1-6.27,0l-1-1,5.22-5.22a12.75,12.75,0,0,0,1-1.12l1.11,1.12h0A4.42,4.42,0,0,1,83,114.14Zm31.32-31.32a4.45,4.45,0,0,1-6.27,0L94.43,69.25a3,3,0,0,0-4.18,4.17L103.83,87a4.43,4.43,0,0,1-6.27,6.26L84,79.69a2.95,2.95,0,0,0-4.17,4.17L93.39,97.44A4.43,4.43,0,0,1,90.25,105c-2.8,0-3.71-2.21-6.37-4.54A10.33,10.33,0,0,0,73.44,90.23,10.31,10.31,0,0,0,63,79.8,10.32,10.32,0,0,0,52.56,69.36a10.33,10.33,0,0,0-17.64-7.42L29.7,67.16l-7-7L57.42,25.39c4.3.49,7.2,1.72,9.86,4.19l-8.35,8.35a11.81,11.81,0,1,0,16.71,16.7L84,46.28l30.28,30.28A4.42,4.42,0,0,1,114.27,82.82Zm-1-15.66L88.17,42.1,90.26,40a3,3,0,1,0-4.18-4.17L71.46,50.46a5.91,5.91,0,0,1-8.35-8.36l12-12C78.64,26.58,82.79,25,88.59,25A17.35,17.35,0,0,0,99.76,21.1l29.4,30.17Zm20.11-20.07-29.23-30,10.66-10,29.29,29.29Z"/></g></g></svg>