<svg xmlns="http://www.w3.org/2000/svg" viewBox="0 0 51 51.75"><defs><style>.cls-1{fill:#fff;}</style></defs><title>Asset 3volunteer_white</title><g id="Layer_2" data-name="Layer 2"><g id="Layer_1-2" data-name="Layer 1"><path class="cls-1" d="M48.82,16a2.27,2.27,0,0,0-.78.11V12.88s-.57-2.17-1.76-2.17a2.39,2.39,0,0,0-.66.1,1.91,1.91,0,0,0-2.17-1.93h0a1.71,1.71,0,0,0-1.9.95,2.18,2.18,0,0,0-.92-.21h0c-1.2,0-2.12,2.17-2.12,2.17v1.09a1.85,1.85,0,0,1-.71-.31h0a2.52,2.52,0,0,0-2.16,2.35c0,.5-.1,5.43,0,7.41a10.34,10.34,0,0,0,2,6.06.87.87,0,0,1,.22.78v2.62h-.27A1.21,1.21,0,0,0,36.22,33v1.68a1.12,1.12,0,0,0-.74,1.07V51a.76.76,0,0,0,.75.76H48.77a.76.76,0,0,0,.75-.76V36.36A1.53,1.53,0,0,0,48.78,35V32.89L47.3,31.64V29.27a1.1,1.1,0,0,1,.42-.86l.14-.11h0A8.71,8.71,0,0,0,51,21.57V18.28A2.28,2.28,0,0,0,48.82,16ZM47.28,36.23h0s0,0,0,0v14H37v-14ZM37.7,34.75V33.27h8.87v1.48ZM49.52,21.57a7.33,7.33,0,0,1-.33,2.2,7.23,7.23,0,0,1-2.32,3.47l-.11.09a2.47,2.47,0,0,0-.93,1.94v2.52H39.17V29.38a2.65,2.65,0,0,0-.65-1.72,8.34,8.34,0,0,1-1.66-5.07c-.11-1.89,0-6.67,0-7.16a.66.66,0,0,1,.67-.64h.2s.34-.43.47-.31a1.11,1.11,0,0,1,.24.47v4.23a.69.69,0,0,0,.7.76.79.79,0,0,0,.78-.76V11.79c0-.36.64-.69.64-.69h0s.66.33.8.69v7.39a.58.58,0,0,0,.61.76,1,1,0,0,0,.87-.76V10.86c-.12-.37.54-.5.54-.5h.29a.65.65,0,0,1,.65.65v8.33a.74.74,0,1,0,1.48,0V12.88s.08-.66.45-.66,1,.66,1,.66v8.75a.32.32,0,0,1-.17.29,7.78,7.78,0,0,0-2.59,2,.73.73,0,0,0,.13,1,.69.69,0,0,0,.45.16.74.74,0,0,0,.58-.28,6.64,6.64,0,0,1,2.1-1.63,1.76,1.76,0,0,0,1-1.59V18.2s-.26-.35-.13-.48a.65.65,0,0,1,.49-.19c.36,0,.38.71.38.71v3.33Z"/><path class="cls-1" d="M13.79,34.08a10.21,10.21,0,0,0,2-6c.11-2,.08-4,0-5.92,0-.5,0-1,0-1.49,0-1.18-2.17-2.13-2.17-2.13h-.42a2,2,0,0,0-.61.09v-1a2.07,2.07,0,0,0-2.07-2.07h.18a2,2,0,0,0-.91,0,1.41,1.41,0,0,0-1.91-.74h0a1.67,1.67,0,0,0-2.16,1.72,2.39,2.39,0,0,0-.66-.1,2,2,0,0,0-2,2.16v3.25a3.87,3.87,0,0,0-.88-.1C.9,21.76,0,23.94,0,23.94V26.5a10.59,10.59,0,0,0,.47,3.13,10.46,10.46,0,0,0,3.29,4.93h0l.17.13a1.33,1.33,0,0,1,.49,1v1.6L3,38.59v1.79a1.45,1.45,0,0,0-.74,1.26v3.45a.74.74,0,0,0,1.48,0V41.41H14v8.13H3.7V48.31a.74.74,0,0,0-1.48,0v1.94A.75.75,0,0,0,3,51h11.8a.76.76,0,0,0,.75-.76V40.9a1.1,1.1,0,0,0-.74-1V38.59s-.57-1.26-1.26-.89H13.3V34.87C13.5,34.59,13.61,34.31,13.79,34.08Zm-.49,5.84H4.43V38.44H13.3Zm-.67-6.8a4.58,4.58,0,0,0-.8,1.75V37H5.17V35a2.82,2.82,0,0,0-.93-2.13l-.11-.09a8.05,8.05,0,0,1-2.32-3.81,8.76,8.76,0,0,1-.33-2.41V24a.78.78,0,0,1,.71-.78.78.78,0,0,1,.54.21.72.72,0,0,1,.23.53v3.4a1.78,1.78,0,0,0,1,1.6A6.48,6.48,0,0,1,6,30.56a.77.77,0,0,0,.59.28.69.69,0,0,0,.45-.16.74.74,0,0,0,.13-1,8,8,0,0,0-2.59-2,.31.31,0,0,1-.18-.28V18.57s.2-.65.57-.65.91.65.91.65v6.68a.74.74,0,1,0,1.48,0V16.93A.65.65,0,0,1,8,16.27H7.86a1.36,1.36,0,0,1,1,.28v8.33c-.35.42,0,.75.4.75s.76-.33,1.08-.75V17.49c-.32-.37.33-.48.33-.48h-.24a.65.65,0,0,1,.65.66v7.39a.74.74,0,1,0,1.48,0V20.65s.62-.66,1-.68h0a.7.7,0,0,1,.66.67c0,.5,0,1,0,1.5,0,1.91.07,3.88,0,5.8A8.86,8.86,0,0,1,12.63,33.12Z"/><path class="cls-1" d="M32.64,8.24a2.11,2.11,0,0,0-.86.15V4.53S30.29,2.19,29,2.19a5.48,5.48,0,0,0-.91.15V2.26S27.12-.08,25.83,0h0a2.14,2.14,0,0,0-2.1,1.22C23.36,1.07,23,1,22.61.75h0C21.28,1,20,3.31,20,3.31V4.6a2.66,2.66,0,0,0-.9-.16H19a2.45,2.45,0,0,0-2.51,2.34c0,.56-.12,6.18,0,8.42A11.1,11.1,0,0,0,18.85,22a1.44,1.44,0,0,1,.37.95v2.9h.21s-1.32.38-1.69,1.11v1.88A4.24,4.24,0,0,0,17,30V50.61a7.52,7.52,0,0,0,1,1.14H31.45a14.11,14.11,0,0,0,1.07-1.14V35.89c-.32-.42-.65-.75-1.07-.75s-1.15.75-1.15.75V49.53H18.48V30.31H30.59a1.21,1.21,0,0,0,.45.14v1.94c-.34.42,0,.75.41.75s.33-.75.33-.75V30.45S31.85,29.29,31,29V27c.29-.73-1-1.11-1-1.11h.28V23.56a1.48,1.48,0,0,1,.55-1.15l.15-.13h0a10.65,10.65,0,0,0,3.26-5,10.93,10.93,0,0,0,.47-3.18V10.45A2.19,2.19,0,0,0,32.64,8.24ZM19.22,28.83V27.36H29.57v1.47ZM33.26,14a8.88,8.88,0,0,1-3.21,6.87l-.13.1a2.86,2.86,0,0,0-1.09,2.27v2.65h-7.4V23a3.07,3.07,0,0,0-.68-1.93,10.35,10.35,0,0,1-1.82-6c-.12-2.2-.08-4.45,0-6.63,0-.57,0-1.14,0-1.71a.84.84,0,0,1,.83-.83h-.6a.85.85,0,0,1,.82.87v5a.74.74,0,1,0,1.47,0V3.09a.84.84,0,0,1,.82-.86h.36a4.25,4.25,0,0,1,1,1.08V11.6c-.21.42.13.76.55.76a1.11,1.11,0,0,0,.93-.76V2.26c-.18-.45.65-.77.65-.77h0a.82.82,0,0,1,.81.83v9.34a.74.74,0,1,0,1.48,0V4.53s.45-.83.91-.83.57.83.57.83v9.79s.16.32,0,.4A8.94,8.94,0,0,0,26.64,17a.75.75,0,0,0,.13,1.06.74.74,0,0,0,.47.16.75.75,0,0,0,.59-.29,7.45,7.45,0,0,1,2.43-1.88,6.24,6.24,0,0,0,1.52-1.75V10.51s-.35-.45-.19-.62a.85.85,0,0,1,.63-.23c.45,0,1,.89,1,.89Z"/></g></g></svg>