<svg xmlns="http://www.w3.org/2000/svg" viewBox="0 0 125.82 26.58"><title>Asset 5greycih_dots</title><g id="Layer_2" data-name="Layer 2"><g id="Layer_1-2" data-name="Layer 1"><path d="M2.16,22.25A2.17,2.17,0,1,1,0,24.42,2.17,2.17,0,0,1,2.16,22.25Z"/><path d="M2.16,11.13A2.17,2.17,0,1,1,0,13.29,2.17,2.17,0,0,1,2.16,11.13Z"/><path d="M2.16,0A2.17,2.17,0,1,1,0,2.16,2.17,2.17,0,0,1,2.16,0Z"/><path d="M13.29,22.25a2.17,2.17,0,1,1-2.16,2.17A2.16,2.16,0,0,1,13.29,22.25Z"/><path d="M13.29,11.13a2.17,2.17,0,1,1-2.16,2.16A2.16,2.16,0,0,1,13.29,11.13Z"/><path d="M13.29,0a2.17,2.17,0,1,1-2.16,2.16A2.16,2.16,0,0,1,13.29,0Z"/><path d="M24.42,22.25a2.17,2.17,0,1,1-2.17,2.17A2.17,2.17,0,0,1,24.42,22.25Z"/><path d="M24.42,11.13a2.17,2.17,0,1,1-2.17,2.16A2.16,2.16,0,0,1,24.42,11.13Z"/><path d="M24.42,0a2.17,2.17,0,1,1-2.17,2.16A2.16,2.16,0,0,1,24.42,0Z"/><path d="M35.54,22.25a2.17,2.17,0,1,1-2.16,2.17A2.17,2.17,0,0,1,35.54,22.25Z"/><path d="M35.54,11.13a2.17,2.17,0,1,1-2.16,2.16A2.17,2.17,0,0,1,35.54,11.13Z"/><path d="M35.54,0a2.17,2.17,0,1,1-2.16,2.16A2.17,2.17,0,0,1,35.54,0Z"/><path d="M46.67,22.25a2.17,2.17,0,1,1-2.16,2.17A2.16,2.16,0,0,1,46.67,22.25Z"/><path d="M46.67,11.13a2.17,2.17,0,1,1-2.16,2.16A2.16,2.16,0,0,1,46.67,11.13Z"/><path d="M46.67,0a2.17,2.17,0,1,1-2.16,2.16A2.16,2.16,0,0,1,46.67,0Z"/><path d="M57.8,22.25a2.17,2.17,0,1,1-2.17,2.17A2.17,2.17,0,0,1,57.8,22.25Z"/><path d="M57.8,11.13a2.17,2.17,0,1,1-2.17,2.16A2.16,2.16,0,0,1,57.8,11.13Z"/><path d="M57.8,0a2.17,2.17,0,1,1-2.17,2.16A2.16,2.16,0,0,1,57.8,0Z"/><path d="M68,22.25a2.17,2.17,0,1,1-2.16,2.17A2.17,2.17,0,0,1,68,22.25Z"/><path d="M68,11.13a2.17,2.17,0,1,1-2.16,2.16A2.17,2.17,0,0,1,68,11.13Z"/><path d="M68,0a2.17,2.17,0,1,1-2.16,2.16A2.17,2.17,0,0,1,68,0Z"/><path d="M79.15,22.25A2.17,2.17,0,1,1,77,24.42,2.17,2.17,0,0,1,79.15,22.25Z"/><path d="M79.15,11.13A2.17,2.17,0,1,1,77,13.29,2.17,2.17,0,0,1,79.15,11.13Z"/><path d="M79.15,0A2.17,2.17,0,1,1,77,2.16,2.17,2.17,0,0,1,79.15,0Z"/><path d="M90.28,22.25a2.17,2.17,0,1,1-2.17,2.17A2.17,2.17,0,0,1,90.28,22.25Z"/><path d="M90.28,11.13a2.17,2.17,0,1,1-2.17,2.16A2.16,2.16,0,0,1,90.28,11.13Z"/><path d="M90.28,0a2.17,2.17,0,1,1-2.17,2.16A2.16,2.16,0,0,1,90.28,0Z"/><path d="M101.4,22.25a2.17,2.17,0,1,1-2.16,2.17A2.17,2.17,0,0,1,101.4,22.25Z"/><path d="M101.4,11.13a2.17,2.17,0,1,1-2.16,2.16A2.17,2.17,0,0,1,101.4,11.13Z"/><path d="M101.4,0a2.17,2.17,0,1,1-2.16,2.16A2.17,2.17,0,0,1,101.4,0Z"/><path d="M112.53,22.25a2.17,2.17,0,1,1-2.16,2.17A2.16,2.16,0,0,1,112.53,22.25Z"/><path d="M112.53,11.13a2.17,2.17,0,1,1-2.16,2.16A2.16,2.16,0,0,1,112.53,11.13Z"/><path d="M112.53,0a2.17,2.17,0,1,1-2.16,2.16A2.16,2.16,0,0,1,112.53,0Z"/><path d="M123.66,22.25a2.17,2.17,0,1,1-2.17,2.17A2.17,2.17,0,0,1,123.66,22.25Z"/><path d="M123.66,11.13a2.17,2.17,0,1,1-2.17,2.16A2.16,2.16,0,0,1,123.66,11.13Z"/><path d="M123.66,0a2.17,2.17,0,1,1-2.17,2.16A2.16,2.16,0,0,1,123.66,0Z"/></g></g></svg>