<svg xmlns="http://www.w3.org/2000/svg" viewBox="0 0 161.38 43.75"><defs><style>.cls-1{font-size:25px;fill:#fff;font-family:TimesNewRomanPS-BoldMT, Times New Roman;font-weight:700;}.cls-2{letter-spacing:-0.02em;}.cls-3{fill:#e5a3a3;}.cls-4{fill:#1a1a1a;}</style></defs><title>Asset 4greycih_logo_text</title><g id="Layer_2" data-name="Layer 2"><g id="Layer_1-2" data-name="Layer 1"><text class="cls-1" transform="translate(57 28.17)">G<tspan class="cls-2" x="19.45" y="0">r</tspan><tspan x="30.09" y="0">eyich...</tspan></text><path class="cls-3" d="M4.75,0H43.59a4.76,4.76,0,0,1,4.74,4.75V30.41a4.75,4.75,0,0,1-4.74,4.74H20l-7.61,8.34a.77.77,0,0,1-.58.26.67.67,0,0,1-.28-.06A.76.76,0,0,1,11,43V35.15H4.75A4.76,4.76,0,0,1,0,30.41V4.75A4.77,4.77,0,0,1,4.75,0Z"/><path class="cls-4" d="M33.34,6.52V14h-.58a9.53,9.53,0,0,0-3.15-4.66A7.39,7.39,0,0,0,25,7.74a5.86,5.86,0,0,0-4,1.34,7.23,7.23,0,0,0-2.24,3.73,18.47,18.47,0,0,0-.66,4.92,18,18,0,0,0,.72,5.36,6.06,6.06,0,0,0,2.33,3.38A6.66,6.66,0,0,0,25,27.55a7.92,7.92,0,0,0,1.58-.16,11.61,11.61,0,0,0,1.65-.48V22.49a4.89,4.89,0,0,0-.17-1.62,1.67,1.67,0,0,0-.72-.66,2.63,2.63,0,0,0-1.3-.3h-.55v-.58H35.83v.58a4.56,4.56,0,0,0-1.64.32,1.63,1.63,0,0,0-.71.81,4.53,4.53,0,0,0-.14,1.45v4.42a20.79,20.79,0,0,1-4.24,1.37,22,22,0,0,1-4.56.46,13.3,13.3,0,0,1-5-.82A12.66,12.66,0,0,1,16,25.76a10.32,10.32,0,0,1-2.39-3,10.61,10.61,0,0,1-1.1-4.85,10.92,10.92,0,0,1,3.37-8.09A11.6,11.6,0,0,1,24.35,6.5a14.6,14.6,0,0,1,2.85.25,15.52,15.52,0,0,1,2.23.71,8.76,8.76,0,0,0,1.83.59,1.24,1.24,0,0,0,.81-.32,2.86,2.86,0,0,0,.69-1.21Z"/></g></g></svg>