<svg xmlns="http://www.w3.org/2000/svg" xmlns:xlink="http://www.w3.org/1999/xlink" viewBox="0 0 393.53 153.93"><defs><style>.cls-1{fill:#ed1c24;}.cls-2{fill:url(#linear-gradient);}.cls-3{fill:url(#linear-gradient-2);}.cls-4{fill:url(#linear-gradient-3);}.cls-5{fill:url(#linear-gradient-4);}.cls-6{fill:#231f20;}</style><linearGradient id="linear-gradient" x1="119.97" y1="113.98" x2="119.97" y2="153.68" gradientUnits="userSpaceOnUse"><stop offset="0" stop-color="#27aae1"/><stop offset="1" stop-color="#2e3192"/></linearGradient><linearGradient id="linear-gradient-2" x1="12.06" y1="113.94" x2="12.06" y2="153.68" xlink:href="#linear-gradient"/><linearGradient id="linear-gradient-3" x1="66.02" y1="69.25" x2="66.02" y2="153.55" xlink:href="#linear-gradient"/><linearGradient id="linear-gradient-4" x1="66.01" y1="30.62" x2="66.01" y2="102.71" xlink:href="#linear-gradient"/></defs><title>Asset 6churchfacts_icon_red</title><g id="Layer_2" data-name="Layer 2"><g id="Layer_1-2" data-name="Layer 1"><path class="cls-1" d="M53.28,44.87h7.56V50.3L42.26,65.8a26.68,26.68,0,0,1-18.18-8.5q-8-8.62-8-23.78T23.66,9.27Q31.24.06,44.82.05q12.68,0,19.49,7T72,25.71l-18.3,1q0-6.41-2.46-9.26a7.43,7.43,0,0,0-5.78-2.86q-9.27,0-9.27,18.63,0,10.44,2.41,14.18a7.63,7.63,0,0,0,6.77,3.75Q51.35,51.12,53.28,44.87Z"/><polygon class="cls-1" points="133.37 0.98 133.37 64.88 113.76 64.88 113.76 40.02 98.78 40.02 98.78 64.88 89.31 64.88 79.17 56.3 79.17 0.98 98.78 0.98 98.78 24.48 113.76 24.48 113.76 0.98 133.37 0.98"/><polygon class="cls-1" points="386.7 0.98 386.7 64.88 367.09 64.88 367.09 40.02 352.11 40.02 352.11 64.88 332.5 64.88 332.5 0.98 352.11 0.98 352.11 24.48 367.09 24.48 367.09 0.98 386.7 0.98"/><path class="cls-1" d="M261.16,29.56a20.49,20.49,0,0,0,2.25-9.76A17,17,0,0,0,257.3,6.16Q251.2,1,240.15,1H206.78v63.9h19.61V40.44h6.18l9.33,24.44h21.74L252.08,37Q258.92,33.79,261.16,29.56Zm-20.45-4.33a10.31,10.31,0,0,1-5.94,1.55h-8.38V14.56h9q7.53,0,7.54,6.13A5.15,5.15,0,0,1,240.71,25.23Z"/><path class="cls-1" d="M289.53,33.14q0,10.44,2.41,14.18a7.61,7.61,0,0,0,6.76,3.75q7.77,0,8.71-10.58l17.93,1.08q-1.27,11.74-8.69,18t-18.23,6.27q-13,0-21-8.61t-8-23.78q0-15,7.58-24.25T298.14,0q12.69,0,19.5,7t7.7,18.63l-18.31,1q0-6.4-2.45-9.26a7.41,7.41,0,0,0-5.78-2.86Q289.53,14.51,289.53,33.14Z"/><path class="cls-1" d="M180.84,1h15.45V43.3q0,12-7.14,17.29t-18.6,5.27q-12.08,0-19.4-5.06t-7.33-16.47V1h19.94V42q0,4.59,1.94,6.7t6.18,2.1a10.16,10.16,0,0,0,5.81-1.52,5.88,5.88,0,0,0,2.71-3.44,40,40,0,0,0,.44-7.49Z"/><path class="cls-1" d="M176.57,84.3,155.4,152.87h17.09l4.12-13.51H195l3.87,13.51h21.48L198.83,84.3Zm3.62,40.09,5.54-19.89,5.55,19.89Z"/><polygon class="cls-1" points="127.97 100.63 127.97 111.78 150.32 111.78 150.32 127.2 133.63 127.2 107.47 111.22 107.47 99.89 114.2 105.5 123.07 94.86 110.39 84.3 157.06 84.3 157.06 100.63 127.97 100.63"/><path class="cls-1" d="M393.53,130.6a20.26,20.26,0,0,1-8.44,16.87q-8.44,6.45-22.15,6.46-25.06,0-30.95-20.9l19.54-3.52q2.46,8.3,12.66,8.29,7.94,0,7.94-4.22a3.92,3.92,0,0,0-1.83-3.44,19.69,19.69,0,0,0-6.56-2.18q-18-3.46-23.16-9a18.76,18.76,0,0,1-5.12-13.11,20.51,20.51,0,0,1,7.36-16.13q7.35-6.44,21.17-6.43,21,0,27.68,16.83l-17.43,5.27q-2.72-6.88-11-6.88-6.89,0-6.88,4.27a3.36,3.36,0,0,0,1.55,3,19.3,19.3,0,0,0,6,2q12.31,2.6,17.49,4.6a18.87,18.87,0,0,1,8.64,6.86A19.13,19.13,0,0,1,393.53,130.6Z"/><path class="cls-1" d="M243.13,118.81q0,11.2,2.58,15.22a8.18,8.18,0,0,0,7.26,4q8.34,0,9.35-11.35l19.24,1.16q-1.37,12.6-9.32,19.34t-19.57,6.73q-14,0-22.55-9.25t-8.6-25.52q0-16.12,8.14-26t22.71-9.89q13.61,0,20.92,7.53t8.27,20l-19.65,1q0-6.89-2.63-10a8,8,0,0,0-6.21-3.06Q243.13,98.82,243.13,118.81Z"/><polygon class="cls-1" points="283.26 84.3 331.64 84.3 331.64 100.73 317.42 100.73 317.42 152.87 297.48 152.87 297.48 100.73 283.26 100.73 283.26 84.3"/><polygon class="cls-2" points="132.03 127.92 132.03 153.68 107.92 153.68 107.92 113.98 132.03 127.92"/><polygon class="cls-3" points="0 153.68 24.11 153.68 24.11 153.54 24.11 113.94 0 127.91 0 153.68"/><path class="cls-4" d="M28.37,100.48v53.07H53.1v-22.5a12.78,12.78,0,0,1,12.77-12.78h.29a12.78,12.78,0,0,1,12.78,12.78v22.5h24.72V100.48L66,69.25Z"/><polygon class="cls-5" points="120.31 94.96 113.94 102.71 107.63 97.51 66.02 63.22 18.11 102.71 11.71 94.96 47.27 65.66 63.03 52.67 63.03 43.26 53.83 43.26 53.83 37.29 63.03 37.29 63.03 30.62 69 30.62 69 37.29 78.22 37.29 78.22 43.26 69 43.26 69 52.67 78.61 60.6 83.7 64.79 108.48 85.21 120.31 94.96"/><line class="cls-6" x1="138.64" y1="127.2" x2="112.48" y2="111.22"/></g></g></svg>